<svg width="44" height="50" viewBox="0 0 44 50" fill="none" xmlns="http://www.w3.org/2000/svg">
<path d="M38.5019 20.8333H5.51316C5.0271 20.8333 4.56094 21.0528 4.21725 21.4435C3.87355 21.8342 3.68046 22.3641 3.68046 22.9167C3.68054 26.5736 4.5274 30.1661 6.13594 33.333C7.74447 36.5 10.058 39.1299 12.844 40.9583V43.75C12.844 44.3025 13.0371 44.8324 13.3808 45.2231C13.7245 45.6138 14.1906 45.8333 14.6767 45.8333H29.3384C29.8244 45.8333 30.2906 45.6138 30.6343 45.2231C30.978 44.8324 31.1711 44.3025 31.1711 43.75V40.9583C33.9571 39.1299 36.2706 36.5 37.8791 33.333C39.4876 30.1661 40.3345 26.5736 40.3346 22.9167C40.3346 22.3641 40.1415 21.8342 39.7978 21.4435C39.4541 21.0528 38.988 20.8333 38.5019 20.8333ZM28.5136 37.8333C28.2086 38.008 27.9526 38.2762 27.7745 38.6075C27.5964 38.9388 27.5033 39.3201 27.5056 39.7083V41.6667H16.5094V39.7083C16.5118 39.3201 16.4187 38.9388 16.2406 38.6075C16.0625 38.2762 15.8064 38.008 15.5014 37.8333C13.3332 36.6146 11.4638 34.8051 10.06 32.5659C8.65624 30.3267 7.76159 27.7276 7.45583 25H36.5592C36.2535 27.7276 35.3588 30.3267 33.955 32.5659C32.5512 34.8051 30.6819 36.6146 28.5136 37.8333ZM16.5094 18.75V16.5208C16.5067 14.0701 15.6654 11.7166 14.1635 9.95834C13.7386 9.47026 13.4032 8.89115 13.1767 8.25457C12.9502 7.618 12.8371 6.93664 12.844 6.25001V4.16667H9.17858V6.25001C9.17174 8.71519 10.0137 11.0856 11.5244 12.8542C12.3737 13.8298 12.8482 15.1483 12.844 16.5208V18.75H16.5094ZM23.8402 18.75V16.5208C23.8375 14.0701 22.9962 11.7166 21.4944 9.95834C21.0695 9.47026 20.734 8.89115 20.5075 8.25457C20.281 7.618 20.1679 6.93664 20.1748 6.25001V4.16667H16.5094V6.25001C16.5121 8.70077 17.3534 11.0542 18.8553 12.8125C19.2802 13.3006 19.6156 13.8797 19.8421 14.5163C20.0687 15.1528 20.1817 15.8342 20.1748 16.5208V18.75H23.8402ZM31.1711 18.75V16.5208C31.1683 14.0701 30.3271 11.7166 28.8252 9.95834C28.4003 9.47026 28.0648 8.89115 27.8383 8.25457C27.6118 7.618 27.4987 6.93664 27.5056 6.25001V4.16667H23.8402V6.25001C23.8429 8.70077 24.6842 11.0542 26.1861 12.8125C26.611 13.3006 26.9465 13.8797 27.173 14.5163C27.3995 15.1528 27.5126 15.8342 27.5056 16.5208V18.75H31.1711Z" fill="#516541" fill-opacity="0.68"/>
</svg>
