<svg width="44" height="50" viewBox="0 0 44 50" fill="none" xmlns="http://www.w3.org/2000/svg">
<path d="M38.4868 20.8333H5.49812C5.01206 20.8333 4.5459 21.0528 4.2022 21.4435C3.8585 21.8342 3.66541 22.3641 3.66541 22.9167C3.66549 26.5736 4.51236 30.1661 6.12089 33.333C7.72942 36.5 10.0429 39.1299 12.8289 40.9583V43.75C12.8289 44.3025 13.022 44.8324 13.3657 45.2231C13.7094 45.6138 14.1756 45.8333 14.6617 45.8333H29.3233C29.8094 45.8333 30.2755 45.6138 30.6192 45.2231C30.9629 44.8324 31.156 44.3025 31.156 43.75V40.9583C33.942 39.1299 36.2555 36.5 37.8641 33.333C39.4726 30.1661 40.3195 26.5736 40.3195 22.9167C40.3195 22.3641 40.1265 21.8342 39.7828 21.4435C39.4391 21.0528 38.9729 20.8333 38.4868 20.8333ZM16.4944 18.75V16.5208C16.4955 14.0692 15.6537 11.7142 14.1485 9.95834C13.7236 9.47026 13.3881 8.89115 13.1616 8.25457C12.9351 7.618 12.822 6.93664 12.8289 6.25001V4.16667H9.16353V6.25001C9.15277 8.71604 9.99533 11.088 11.5094 12.8542C12.3586 13.8298 12.8331 15.1483 12.8289 16.5208V18.75H16.4944ZM23.8252 18.75V16.5208C23.8263 14.0692 22.9845 11.7142 21.4793 9.95834C21.0544 9.47026 20.719 8.89115 20.4925 8.25457C20.2659 7.618 20.1529 6.93664 20.1598 6.25001V4.16667H16.4944V6.25001C16.4932 8.70163 17.335 11.0567 18.8402 12.8125C19.2651 13.3006 19.6006 13.8797 19.8271 14.5163C20.0536 15.1528 20.1667 15.8342 20.1598 16.5208V18.75H23.8252ZM31.156 18.75V16.5208C31.1572 14.0692 30.3153 11.7142 28.8102 9.95834C28.3852 9.47026 28.0498 8.89115 27.8233 8.25457C27.5968 7.618 27.4837 6.93664 27.4906 6.25001V4.16667H23.8252V6.25001C23.824 8.70163 24.6659 11.0567 26.1711 12.8125C26.596 13.3006 26.9314 13.8797 27.1579 14.5163C27.3844 15.1528 27.4975 15.8342 27.4906 16.5208V18.75H31.156Z" fill="#516541" fill-opacity="0.68"/>
</svg>
