<svg width="66" height="100" viewBox="0 0 66 100" fill="none" xmlns="http://www.w3.org/2000/svg">
<path d="M13.7785 88.1207H10.6777V91.1883H13.7785V88.1207Z" fill="#516541" fill-opacity="0.68"/>
<path d="M19.9812 88.1207H16.8804V91.1883H19.9812V88.1207Z" fill="#516541" fill-opacity="0.68"/>
<path d="M26.1824 88.1207H23.0816V91.1883H26.1824V88.1207Z" fill="#516541" fill-opacity="0.68"/>
<path d="M44.7874 88.1207H41.6866V91.1883H44.7874V88.1207Z" fill="#516541" fill-opacity="0.68"/>
<path d="M50.9884 88.1207H47.8876V91.1883H50.9884V88.1207Z" fill="#516541" fill-opacity="0.68"/>
<path d="M57.1896 88.1207H54.0888V91.1883H57.1896V88.1207Z" fill="#516541" fill-opacity="0.68"/>
<path d="M51.2265 20.6916H53.8883V10.5744H52.8607L55.9614 0H22.1092L19.0084 10.5744H16.3021L14.1006 3.06738H19.9805V0H10.3566L13.4574 10.5744H0.0269928V12.1082C0.0269928 16.8412 3.41435 20.6916 7.5778 20.6916H16.2937L1.57729 55.8219V100H33.5858H35.2837H65.9429V55.8219L51.2265 20.6916ZM24.0541 3.06758H52.2174L50.0161 10.5746H21.8528L24.0541 3.06758ZM7.5778 17.6242C5.37031 17.6242 3.50215 15.9398 2.91626 13.642H51.1897V17.6242H7.5778ZM32.5853 88.1205H29.2835V91.1881H32.5853V96.9326H4.27584V91.1881H7.57763V88.1205H4.27584V56.515L17.0813 25.9461V50.8812H19.7798V25.9461L32.5853 56.515V88.1205V88.1205ZM63.2444 88.1205H60.291V91.1881H63.2444V96.9326H35.2837V91.1881H38.5855V88.1205H35.2837V55.8219L20.5673 20.6914H48.2379L63.2444 56.5148V88.1205Z" fill="#516541" fill-opacity="0.68"/>
<path d="M55.841 10.3459V20.9203H58.5394V17.1666H61.8415V14.0992H58.5394V10.3459H55.841Z" fill="#516541" fill-opacity="0.68"/>
</svg>
